<svg width="20" height="20" viewBox="0 0 20 20" fill="none" xmlns="http://www.w3.org/2000/svg">
<path fill-rule="evenodd" clip-rule="evenodd" d="M19.8596 0.818344C20.0468 0.631137 20.0468 0.327613 19.8596 0.140406C19.6724 -0.0468019 19.3689 -0.0468019 19.1817 0.140406L9.99988 9.32218L0.818348 0.14041C0.631143 -0.0468 0.32762 -0.0468038 0.14041 0.140401C-0.0468 0.327607 -0.0468038 0.63113 0.140401 0.81834L9.32195 10.0001L0.140406 19.1817C-0.0468019 19.3689 -0.0468019 19.6724 0.140406 19.8596C0.327613 20.0468 0.631137 20.0468 0.818344 19.8596L9.99988 10.6781L19.1817 19.8601C19.3689 20.0473 19.6724 20.0473 19.8596 19.8601C20.0468 19.6729 20.0468 19.3693 19.8596 19.1821L10.6778 10.0001L19.8596 0.818344Z" fill="black"/>
</svg>
