<svg width="30" height="30" viewBox="0 0 30 30" fill="none" xmlns="http://www.w3.org/2000/svg">
<path fill-rule="evenodd" clip-rule="evenodd" d="M29.7894 1.22752C30.0702 0.946705 30.0702 0.49142 29.7894 0.210609C29.5086 -0.0702028 29.0533 -0.0702028 28.7725 0.210609L14.9998 13.9833L1.22752 0.210615C0.946715 -0.0701999 0.49143 -0.0702057 0.210615 0.210602C-0.0701999 0.49141 -0.0702057 0.946695 0.210602 1.22751L13.9829 15.0002L0.210608 28.7725C-0.0702028 29.0533 -0.0702028 29.5086 0.210608 29.7894C0.49142 30.0702 0.946705 30.0702 1.22752 29.7894L14.9998 16.0171L28.7725 29.7901C29.0533 30.0709 29.5086 30.0709 29.7894 29.7901C30.0702 29.5093 30.0702 29.054 29.7894 28.7732L16.0167 15.0002L29.7894 1.22752Z" fill="black"/>
</svg>
