<svg width="30" height="26" viewBox="0 0 30 26" fill="none" xmlns="http://www.w3.org/2000/svg">
<path fill-rule="evenodd" clip-rule="evenodd" d="M23.8148 8.69122C23.8302 9.01641 24.0863 9.27337 24.4026 9.29821C24.4747 9.3037 24.5574 9.30141 24.6406 9.2991C24.7096 9.29719 24.7791 9.29527 24.8434 9.29775C25.8949 9.33837 26.8432 9.78128 27.5387 10.4767C28.269 11.2069 28.7208 12.2161 28.7208 13.3305C28.7208 14.4449 28.269 15.454 27.5387 16.1842C26.8085 16.9145 25.7993 17.3662 24.6848 17.3662H22.5H22.4736C22.1518 13.5207 18.9287 10.5 15 10.5C11.0714 10.5 7.84824 13.5206 7.52641 17.3661H7.5H5.98284C4.68387 17.3661 3.50772 16.8395 2.6567 15.9885C1.80562 15.1373 1.27903 13.9612 1.27903 12.6623C1.27903 11.3633 1.80562 10.1872 2.6567 9.33608C3.48558 8.50721 4.62262 7.98617 5.88126 7.95952C5.9019 7.95912 5.92454 7.95927 5.94778 7.95942C5.99693 7.95975 6.04881 7.96009 6.09039 7.9553C6.42133 7.91876 6.66521 7.63557 6.65954 7.3092C6.65808 7.20732 6.64979 7.1062 6.64141 7.00398L6.64141 7.00397C6.63195 6.88858 6.62237 6.77179 6.62237 6.65092C6.62237 5.1675 7.22377 3.82443 8.19576 2.85244C9.16776 1.88045 10.5108 1.27913 11.9942 1.27913C13.1536 1.27913 14.2252 1.64439 15.0999 2.26537C15.9899 2.89734 16.6792 3.79273 17.0537 4.83697C17.0853 4.95413 17.1504 5.06368 17.2481 5.14984C17.4887 5.36189 17.8444 5.36036 18.0824 5.15981C18.1175 5.13045 18.1478 5.09635 18.1781 5.06223C18.1897 5.04913 18.2014 5.03603 18.2133 5.0232C18.5167 4.69759 18.883 4.43198 19.2921 4.24699C19.7128 4.05688 20.1816 3.95093 20.6769 3.95093C21.607 3.95093 22.4493 4.32796 23.0586 4.93731C23.6679 5.54666 24.045 6.38882 24.045 7.31901C24.045 7.51805 24.0284 7.70954 23.9971 7.89245C23.9663 8.07134 23.9212 8.24581 23.8636 8.41377C23.8279 8.49882 23.8101 8.59287 23.8148 8.69122ZM22.5 18.6441H22.4727C22.1461 22.4847 18.9252 25.5 15 25.5C11.0731 25.5 7.85104 22.482 7.52683 18.6389H7.5L5.98286 18.6452C4.33072 18.6452 2.83491 17.9755 1.75242 16.8929C0.669699 15.8102 0 14.3142 0 12.6623C0 11.0103 0.669699 9.51434 1.75242 8.4317C2.69354 7.49058 3.94685 6.86144 5.34382 6.71313C5.32991 4.91801 6.02148 3.21798 7.2914 1.94806C8.49494 0.744514 10.1577 0 11.9942 0C13.4246 0 14.7518 0.454056 15.8393 1.22618C16.7005 1.83775 17.4099 2.64994 17.8998 3.59487C18.168 3.39459 18.4587 3.22248 18.7675 3.08296C19.3516 2.81901 19.9981 2.67188 20.6769 2.67188C21.96 2.67188 23.1221 3.19203 23.9629 4.03294C24.8038 4.87385 25.3241 6.03568 25.3241 7.31902C25.3241 7.56387 25.3041 7.80713 25.266 8.04713C26.5015 8.18153 27.61 8.73939 28.443 9.57235C29.4049 10.5341 30 11.863 30 13.3305C30 14.798 29.4049 16.1269 28.4432 17.0886C27.4813 18.0504 26.1524 18.6454 24.6848 18.6454L22.5 18.6441ZM15 24.5C18.5899 24.5 21.5 21.5899 21.5 18C21.5 14.4101 18.5899 11.5 15 11.5C11.4101 11.5 8.5 14.4101 8.5 18C8.5 21.5899 11.4101 24.5 15 24.5ZM17.4008 21C17.2472 21 17.0936 20.9412 16.976 20.8248L15 18.8487L13.024 20.8248C12.9076 20.9412 12.754 21 12.6004 21C12.4467 21 12.2931 20.9412 12.1755 20.8248C11.9415 20.5907 11.9415 20.2103 12.1755 19.9762L14.1515 18.0001L12.1755 16.0241C11.9415 15.79 11.9415 15.4096 12.1755 15.1755C12.4095 14.9415 12.79 14.9415 13.024 15.1755L15 17.1516L16.976 15.1755C17.21 14.9415 17.5905 14.9415 17.8245 15.1755C18.0585 15.4096 18.0585 15.79 17.8245 16.0241L15.8485 18.0001L17.8245 19.9762C18.0585 20.2103 18.0585 20.5907 17.8245 20.8248C17.7081 20.9412 17.5545 21 17.4008 21Z" fill="black"/>
</svg>
