<svg width="39" height="30" viewBox="0 0 39 30" fill="none" xmlns="http://www.w3.org/2000/svg">
<path d="M34.4423 5.68846C33.5308 5.13462 32.5154 4.78846 31.4423 4.66154C30.8885 4.58077 30.2769 4.58077 29.7923 4.66154C29.3654 4.69615 28.9615 4.77692 28.5923 4.89231C27.7962 5.11154 27.0462 5.45769 26.3654 5.91923C26.2962 5.61923 26.2154 5.33077 26.1115 5.05385C25.2231 2.46923 23.0077 0.576923 20.3192 0.115385C19.9038 0.0346153 19.4769 0 19.0385 0C16.8692 0 14.8154 0.934615 13.4077 2.57308C12.5654 3.54231 11.9885 4.68462 11.7231 5.91923C10.4769 5.07692 9.01154 4.61538 7.5 4.61538C3.36923 4.61538 0 7.98462 0 12.1154C0 16.2462 3.36923 19.6154 7.5 19.6154H12.2654C14.0077 23.8846 18.3577 29.4808 18.5885 29.7808C18.6923 29.9192 18.8654 30 19.0385 30C19.2115 30 19.3846 29.9192 19.4885 29.7808C19.7192 29.4923 24.0577 23.8846 25.8115 19.6154H30.5769C34.7077 19.6154 38.0769 16.2462 38.0769 12.1154C38.0769 9.50769 36.6808 7.03846 34.4423 5.68846ZM19.0385 28.4769C16.9154 25.6615 12.6923 19.4885 12.6923 16.7308C12.6923 13.2346 15.5423 10.3846 19.0385 10.3846C22.5346 10.3846 25.3846 13.2346 25.3846 16.7308C25.3846 19.4885 21.1615 25.6615 19.0385 28.4769ZM30.5769 18.4615H26.2269C26.4231 17.8269 26.5385 17.2385 26.5385 16.7308C26.5385 12.6 23.1692 9.23077 19.0385 9.23077C14.9077 9.23077 11.5385 12.6 11.5385 16.7308C11.5385 17.2385 11.6538 17.8269 11.85 18.4615H7.5C4.00385 18.4615 1.15385 15.6115 1.15385 12.1154C1.15385 8.61923 4.00385 5.76923 7.5 5.76923C9.08077 5.76923 10.5923 6.35769 11.7462 7.41923C11.9077 7.56923 12.1385 7.61538 12.3462 7.53462C12.5538 7.45385 12.6923 7.25769 12.7038 7.03846C12.8077 5.66538 13.35 4.38462 14.2615 3.33462C15.4731 1.95 17.2038 1.15385 19.0385 1.15385C19.4077 1.15385 19.7654 1.18846 20.1115 1.24615C22.3846 1.63846 24.2654 3.23077 25.0154 5.42308C25.2 5.94231 25.3154 6.48462 25.35 7.02692C25.3615 7.24615 25.5115 7.44231 25.7077 7.52308C25.9154 7.60385 26.1462 7.55769 26.3077 7.40769C27.0462 6.73846 27.9231 6.25385 28.8923 5.98846C29.1923 5.89615 29.5269 5.83846 29.9077 5.80385C30.3462 5.73462 30.8192 5.74615 31.2808 5.80385C32.2038 5.90769 33.0577 6.19615 33.8308 6.66923C35.7346 7.81154 36.9115 9.9 36.9115 12.1038C36.9231 15.6115 34.0731 18.4615 30.5769 18.4615Z" fill="black"/>
<path d="M19.0385 13.8461C17.4462 13.8461 16.1538 15.1384 16.1538 16.7307C16.1538 18.323 17.4462 19.6153 19.0385 19.6153C20.6308 19.6153 21.9231 18.323 21.9231 16.7307C21.9231 15.1384 20.6308 13.8461 19.0385 13.8461ZM19.0385 18.4615C18.0808 18.4615 17.3077 17.6884 17.3077 16.7307C17.3077 15.773 18.0808 14.9999 19.0385 14.9999C19.9962 14.9999 20.7692 15.773 20.7692 16.7307C20.7692 17.6884 19.9962 18.4615 19.0385 18.4615Z" fill="black"/>
</svg>
