<svg width="30" height="26" viewBox="0 0 30 26" fill="none" xmlns="http://www.w3.org/2000/svg">
<path fill-rule="evenodd" clip-rule="evenodd" d="M24.4026 9.29821C24.0863 9.27337 23.8302 9.01641 23.8148 8.69121C23.8101 8.59287 23.8279 8.49882 23.8636 8.41377C23.9212 8.24581 23.9663 8.07134 23.9971 7.89245C24.0284 7.70954 24.045 7.51805 24.045 7.31901C24.045 6.38882 23.6679 5.54666 23.0586 4.93731C22.4493 4.32796 21.607 3.95093 20.6769 3.95093C20.1816 3.95093 19.7128 4.05688 19.2921 4.24699C18.883 4.43198 18.5167 4.69759 18.2133 5.0232C18.2014 5.03603 18.1897 5.04913 18.1781 5.06223C18.1478 5.09635 18.1175 5.13045 18.0824 5.15981C17.8444 5.36036 17.4887 5.36189 17.2481 5.14984C17.1504 5.06368 17.0853 4.95413 17.0537 4.83697C16.6792 3.79273 15.9899 2.89734 15.0999 2.26537C14.2252 1.64439 13.1536 1.27913 11.9942 1.27913C10.5108 1.27913 9.16776 1.88045 8.19576 2.85244C7.22377 3.82443 6.62238 5.1675 6.62238 6.65092C6.62238 6.77179 6.63195 6.88858 6.64141 7.00397L6.64141 7.00398V7.00398C6.64979 7.1062 6.65808 7.20732 6.65954 7.3092C6.66521 7.63557 6.42133 7.91876 6.09039 7.9553C6.04881 7.96009 5.99693 7.95975 5.94778 7.95942C5.92454 7.95927 5.9019 7.95912 5.88126 7.95952C4.62262 7.98616 3.48558 8.50721 2.6567 9.33608C1.80562 10.1872 1.27903 11.3633 1.27903 12.6623C1.27903 13.9612 1.80562 15.1373 2.6567 15.9885C3.50772 16.8395 4.68387 17.3661 5.98284 17.3661L8.63753 17.3688C8.6373 17.3576 8.6371 17.3463 8.63694 17.335C8.63627 17.3001 8.63595 17.2656 8.63595 17.2314C8.63595 15.474 9.34822 13.8828 10.4998 12.7313C11.6514 11.5797 13.2424 10.8674 14.9999 10.8674C16.7573 10.8674 18.3483 11.5798 19.4999 12.7313C20.2905 13.522 20.8741 14.52 21.1622 15.6367C21.2939 16.1466 21.3639 16.6813 21.3639 17.2324C21.3639 17.2773 21.3635 17.322 21.3626 17.3662H24.6848C25.7993 17.3662 26.8085 16.9145 27.5387 16.1842C28.269 15.454 28.7208 14.4449 28.7208 13.3305C28.7208 12.2161 28.269 11.2069 27.5387 10.4767C26.8432 9.78128 25.8949 9.33837 24.8434 9.29774C24.7791 9.29527 24.7096 9.29719 24.6406 9.29911C24.5573 9.30142 24.4747 9.30372 24.4026 9.29823L24.4026 9.29821ZM21.2022 18.6485C21.2641 18.6467 21.3237 18.6454 21.3789 18.6454H24.6848C26.1524 18.6454 27.4813 18.0504 28.4432 17.0886C29.4049 16.1268 30 14.798 30 13.3305C30 11.863 29.4049 10.5341 28.443 9.57234C27.61 8.73939 26.5015 8.18153 25.266 8.04713C25.3041 7.80713 25.3241 7.56387 25.3241 7.31902L25.3241 7.31902C25.3241 6.03567 24.8038 4.87385 23.9629 4.03294C23.1221 3.19203 21.96 2.67188 20.6769 2.67188C19.9981 2.67188 19.3516 2.81901 18.7675 3.08296C18.4587 3.22248 18.168 3.39459 17.8998 3.59487C17.4099 2.64994 16.7005 1.83775 15.8393 1.22618C14.7518 0.454056 13.4246 0 11.9942 0C10.1577 0 8.49494 0.744514 7.2914 1.94806C6.02148 3.21798 5.32991 4.91801 5.34382 6.71313C3.94685 6.86143 2.69354 7.49058 1.75242 8.4317C0.669699 9.51434 0 11.0103 0 12.6623C0 14.3142 0.669699 15.8102 1.75242 16.8929C2.83491 17.9755 4.33072 18.6452 5.98286 18.6452L8.7971 18.6453C9.24287 20.4988 10.5561 21.7151 11.9946 23.0475L11.9949 23.0478C12.8301 23.8214 13.7117 24.6381 14.4506 25.6387C14.4934 25.7107 14.5512 25.7755 14.6233 25.828C14.8944 26.0258 15.2692 25.9792 15.4843 25.7292C15.5011 25.7099 15.5154 25.6887 15.53 25.6673C15.5384 25.6549 15.5469 25.6424 15.5559 25.6301C16.2933 24.6334 17.1723 23.8191 18.0052 23.0479C19.443 21.7162 20.7557 20.5003 21.2022 18.6485ZM19.9838 16.2186C20.0499 16.5459 20.0846 16.8846 20.0846 17.2314C20.0846 17.2857 20.0838 17.3398 20.0822 17.3937C20.0147 19.4519 18.6573 20.7092 17.1411 22.1135L17.141 22.1136C16.4295 22.7723 15.6863 23.4607 15.0002 24.2798C14.3149 23.4618 13.5725 22.7742 12.8621 22.1162L12.8592 22.1135L12.8591 22.1134C11.3036 20.6728 9.91525 19.387 9.91525 17.2324C9.91525 15.8281 10.4843 14.5567 11.4044 13.6366C12.3244 12.7166 13.5957 12.1475 15.0002 12.1475C16.4044 12.1475 17.6757 12.7167 18.5957 13.6368L18.5957 13.6368C19.2883 14.3293 19.782 15.221 19.9838 16.2186ZM15.3454 18.9778C15.11 19.0239 14.8692 19.0213 14.6378 18.9732C14.1912 18.8803 13.7798 18.6178 13.5112 18.2081C13.1016 17.5835 13.1372 16.793 13.5398 16.2139C13.7238 15.9506 13.9737 15.7463 14.2574 15.6159C14.4557 15.5248 14.6705 15.4697 14.8909 15.4557C15.3265 15.4296 15.7635 15.5641 16.1102 15.8402C16.6025 16.2337 16.8567 16.8691 16.7598 17.5013C16.7419 17.6182 16.712 17.7349 16.6694 17.8499C16.4469 18.4508 15.9322 18.8607 15.3454 18.9778ZM15.1907 20.2844C15.7045 20.2532 16.2172 20.0921 16.6773 19.7904C16.6949 19.7788 16.7118 19.7665 16.7279 19.7536C17.2337 19.4084 17.641 18.9094 17.8689 18.2941C18.2099 17.373 18.0758 16.3881 17.5915 15.6112C17.5816 15.5919 17.5705 15.573 17.5584 15.5545C17.3756 15.2757 17.1544 15.0366 16.9063 14.8396C16.8146 14.7663 16.7182 14.698 16.6173 14.635C16.4451 14.5277 16.2597 14.4361 16.0623 14.363C15.7658 14.2532 15.4629 14.1926 15.1625 14.1769C15.0363 14.1703 14.9105 14.1716 14.7858 14.1806C14.6777 14.1884 14.5705 14.2019 14.4645 14.2209C14.068 14.2905 13.6793 14.4398 13.3225 14.6738C13.1904 14.7604 13.0673 14.8556 12.9533 14.9582C12.8773 15.0265 12.8055 15.0982 12.7377 15.1728L12.7113 15.2023C12.4659 15.4782 12.2669 15.8032 12.1312 16.1695C12.1236 16.1902 12.1171 16.211 12.1117 16.2318C11.8772 16.9122 11.8824 17.6694 12.1566 18.3611C12.2314 18.5497 12.3262 18.7335 12.4416 18.9095C12.8045 19.4629 13.318 19.8601 13.8931 20.0824C13.9076 20.0891 13.9225 20.0952 13.9377 20.1009C14.3508 20.2538 14.7766 20.3112 15.1907 20.2844Z" fill="black"/>
</svg>
